<svg width="120" height="120" viewBox="0 0 120 120" fill="none" xmlns="http://www.w3.org/2000/svg">
<path fill-rule="evenodd" clip-rule="evenodd" d="M91.4062 0C108.75 0 120 11.25 120 28.5938V91.4062C120 108.75 108.75 120 91.4062 120H28.5938C11.25 120 0 108.75 0 91.4062V28.5938C0 11.25 11.25 0 28.5938 0H91.4062Z" fill="#55A3FF"/>
<path fill-rule="evenodd" clip-rule="evenodd" d="M55 49.5193V37.5055C55 31.6979 50.299 26.9999 44.5 26.9999C38.6997 26.9999 34 31.7034 34 37.5055V83.4944C34 89.302 38.701 93.9999 44.5 93.9999C50.3003 93.9999 55 89.2964 55 83.4944V70.2469L71.0683 90.0896C74.7164 94.5947 81.3262 95.2891 85.8339 91.6389C90.3405 87.9895 91.0309 81.372 87.3884 76.8739L73.4954 59.7175L84.8385 43.5179C88.1584 38.7766 87.0081 32.2234 82.2578 28.8973C77.5065 25.5704 70.9613 26.7242 67.6363 31.4728L55 49.5193Z" fill="white"/>
</svg>
