<svg width="512" height="512" viewBox="0 0 512 512" fill="none" xmlns="http://www.w3.org/2000/svg">
<path fill-rule="evenodd" clip-rule="evenodd" d="M422.912 243.68H363.288C362.608 222.421 359.813 201.282 354.944 180.576C369.624 175.824 383.336 170.064 395.672 163.264C411.533 187.273 420.917 214.975 422.912 243.68ZM395.12 349.008C382.856 342.296 369.208 336.624 354.648 331.912C359.704 310.851 362.599 289.329 363.288 267.68H422.912C420.905 296.75 411.323 324.789 395.12 349.008ZM318.824 411.2C330.536 396.112 340.488 376.968 348 354.896C358.991 358.445 369.674 362.883 379.944 368.168C363.049 386.907 342.162 401.612 318.824 411.2ZM267.52 421.536V341.248C286.776 341.897 305.929 344.348 324.728 348.568C320.832 359.72 316.296 370.216 310.968 379.68C298.456 401.928 283.096 416.464 267.52 421.536ZM267.52 267.68H339.2C338.448 287.928 335.864 307.432 331.504 325.552C310.495 320.723 289.066 317.945 267.52 317.256V267.68ZM267.52 195.304C289.17 194.617 310.701 191.82 331.808 186.952C336 204.744 338.464 223.864 339.2 243.68H267.52V195.304ZM267.52 89.8161C283.096 94.8961 298.456 109.432 310.968 131.68C316.472 141.456 321.136 152.344 325.104 163.928C306.944 168.08 287.56 170.592 267.52 171.312V89.8161ZM380.728 144.056C370.332 149.454 359.505 153.979 348.36 157.584C340.808 135.04 330.728 115.504 318.824 100.16C342.526 109.899 363.696 124.911 380.728 144.056ZM243.52 171.312C224.136 170.66 204.857 168.187 185.936 163.928C189.904 152.344 194.568 141.456 200.072 131.68C212.584 109.432 227.944 94.8961 243.52 89.8161V171.312ZM243.52 243.68H171.84C172.576 223.864 175.04 204.744 179.232 186.952C199.552 191.704 221.208 194.544 243.52 195.304V243.68ZM243.52 317.248C221.97 317.928 200.536 320.695 179.52 325.512C175.168 307.408 172.592 287.912 171.84 267.68H243.52V317.248ZM243.52 421.536C227.944 416.464 212.584 401.928 200.072 379.68C194.744 370.208 190.2 359.696 186.296 348.528C205.102 344.323 224.26 341.883 243.52 341.24V421.536ZM131.048 368.112C141.33 362.827 152.027 358.391 163.032 354.848C170.544 376.944 180.496 396.096 192.216 411.2C168.855 401.603 147.95 386.878 131.048 368.112ZM115.88 348.936C99.7003 324.735 90.133 296.722 88.128 267.68H147.752C148.44 289.312 151.33 310.818 156.376 331.864C141.808 336.568 128.152 342.224 115.88 348.936ZM115.368 163.264C127.696 170.064 141.424 175.824 156.104 180.576C151.416 200.152 148.528 221.408 147.752 243.68H88.128C90.1232 214.975 99.5069 187.273 115.368 163.264ZM192.216 100.16C180.312 115.504 170.24 135.04 162.68 157.584C151.536 153.974 140.71 149.449 130.312 144.056C147.339 124.906 168.511 109.893 192.216 100.16ZM267.52 64.0881V63.6801H243.52V64.0881C147.048 70.0481 69.888 147.208 63.928 243.68H63.52V267.68H63.928C69.888 364.152 147.048 441.312 243.52 447.272V447.68H267.52V447.272C363.992 441.312 441.152 364.152 447.112 267.68H447.52V243.68H447.112C441.152 147.208 363.992 70.0481 267.52 64.0881Z" fill="white"/>
<path fill-rule="evenodd" clip-rule="evenodd" d="M156.104 180.576C141.424 175.824 127.696 170.064 115.368 163.264C99.5069 187.273 90.1232 214.975 88.128 243.68H147.752C148.528 221.408 151.416 200.152 156.104 180.576Z" fill="#0D4D4B"/>
<mask id="mask0_153_5" style="mask-type:luminance" maskUnits="userSpaceOnUse" x="0" y="0" width="512" height="512">
<path d="M0 511.68V0H511.52V511.68H0Z" fill="white"/>
</mask>
<g mask="url(#mask0_153_5)">
<path fill-rule="evenodd" clip-rule="evenodd" d="M192.216 100.16C168.511 109.893 147.339 124.906 130.312 144.056C140.71 149.449 151.536 153.974 162.68 157.584C170.24 135.04 180.312 115.504 192.216 100.16Z" fill="#0D4D4B"/>
</g>
<mask id="mask1_153_5" style="mask-type:luminance" maskUnits="userSpaceOnUse" x="0" y="0" width="512" height="512">
<path d="M0 511.68V0H511.52V511.68H0Z" fill="white"/>
</mask>
<g mask="url(#mask1_153_5)">
<path fill-rule="evenodd" clip-rule="evenodd" d="M447.52 243.68V267.68H447.112C441.152 364.152 363.992 441.312 267.52 447.272V447.68H243.52V447.272C147.048 441.312 69.888 364.152 63.928 267.68H63.52V243.68H63.928C69.888 147.208 147.048 70.0481 243.52 64.0881V63.6801H267.52V64.0881C363.992 70.0481 441.152 147.208 447.112 243.68H447.52ZM255.52 -0.319946C114.136 -0.319946 -0.47998 114.296 -0.47998 255.68C-0.47998 397.064 114.136 511.68 255.52 511.68C396.904 511.68 511.52 397.064 511.52 255.68C511.52 114.296 396.904 -0.319946 255.52 -0.319946Z" fill="#0D4D4B"/>
</g>
<path fill-rule="evenodd" clip-rule="evenodd" d="M354.648 331.912C369.208 336.624 382.856 342.296 395.12 349.008C411.323 324.789 420.905 296.75 422.912 267.68H363.288C362.599 289.329 359.704 310.851 354.648 331.912Z" fill="#0D4D4B"/>
<path fill-rule="evenodd" clip-rule="evenodd" d="M147.752 267.68H88.128C90.1329 296.722 99.7003 324.735 115.88 348.936C128.152 342.224 141.808 336.568 156.376 331.864C151.33 310.817 148.44 289.312 147.752 267.68Z" fill="#0D4D4B"/>
<path fill-rule="evenodd" clip-rule="evenodd" d="M318.824 411.2C342.162 401.612 363.049 386.907 379.944 368.168C369.674 362.883 358.991 358.445 348 354.896C340.488 376.968 330.536 396.112 318.824 411.2Z" fill="#0D4D4B"/>
<path fill-rule="evenodd" clip-rule="evenodd" d="M131.048 368.112C147.95 386.878 168.855 401.603 192.216 411.2C180.496 396.096 170.544 376.944 163.032 354.848C152.027 358.391 141.33 362.827 131.048 368.112Z" fill="#0D4D4B"/>
<path fill-rule="evenodd" clip-rule="evenodd" d="M380.728 144.056C363.696 124.911 342.526 109.899 318.824 100.16C330.728 115.504 340.808 135.04 348.36 157.584C359.505 153.979 370.332 149.454 380.728 144.056Z" fill="#0D4D4B"/>
<path fill-rule="evenodd" clip-rule="evenodd" d="M339.2 267.68H267.52V317.256C289.728 318.016 311.272 320.84 331.504 325.552C335.864 307.432 338.448 287.928 339.2 267.68Z" fill="#0D4D4B"/>
<path fill-rule="evenodd" clip-rule="evenodd" d="M200.072 131.68C194.568 141.456 189.904 152.344 185.936 163.928C204.096 168.072 223.48 170.592 243.52 171.312V89.816C227.944 94.896 212.584 109.432 200.072 131.68Z" fill="#0D4D4B"/>
<path fill-rule="evenodd" clip-rule="evenodd" d="M171.84 243.68H243.52V195.304C221.87 194.617 200.339 191.82 179.232 186.952C175.04 204.744 172.576 223.864 171.84 243.68Z" fill="#0D4D4B"/>
<path fill-rule="evenodd" clip-rule="evenodd" d="M310.968 131.68C298.456 109.432 283.096 94.896 267.52 89.816V171.312C286.904 170.664 306.184 168.191 325.104 163.928C321.136 152.344 316.472 141.456 310.968 131.68Z" fill="#0D4D4B"/>
<path fill-rule="evenodd" clip-rule="evenodd" d="M331.808 186.952C310.701 191.82 289.17 194.617 267.52 195.304V243.68H339.2C338.464 223.864 336 204.744 331.808 186.952Z" fill="#0D4D4B"/>
<path fill-rule="evenodd" clip-rule="evenodd" d="M363.288 243.68H422.912C420.917 214.975 411.533 187.273 395.672 163.264C383.336 170.064 369.624 175.824 354.944 180.576C359.813 201.282 362.608 222.421 363.288 243.68Z" fill="#0D4D4B"/>
<path fill-rule="evenodd" clip-rule="evenodd" d="M200.072 379.68C212.584 401.928 227.944 416.464 243.52 421.536V341.24C224.26 341.883 205.102 344.323 186.296 348.528C190.2 359.696 194.744 370.208 200.072 379.68Z" fill="#0D4D4B"/>
<path fill-rule="evenodd" clip-rule="evenodd" d="M267.52 341.248V421.536C283.096 416.464 298.456 401.928 310.968 379.68C316.296 370.216 320.832 359.72 324.728 348.568C305.929 344.348 286.776 341.897 267.52 341.248Z" fill="#0D4D4B"/>
<path fill-rule="evenodd" clip-rule="evenodd" d="M179.52 325.512C200.536 320.695 221.97 317.927 243.52 317.248V267.68H171.84C172.592 287.912 175.168 307.408 179.52 325.512Z" fill="#0D4D4B"/>
</svg>
